<?xml version="1.0" standalone="no"?><!DOCTYPE svg PUBLIC "-//W3C//DTD SVG 1.1//EN" "http://www.w3.org/Graphics/SVG/1.1/DTD/svg11.dtd"><svg t="1769989947771" class="icon" viewBox="0 0 1024 1024" version="1.1" xmlns="http://www.w3.org/2000/svg" p-id="4814" xmlns:xlink="http://www.w3.org/1999/xlink" width="128" height="128"><path d="M811.456 204.864l116.544 67.2v165.568L729.472 552.32l-0.512-160.896L605.44 320 811.52 204.8z m-88.384-51.008L519.68 270.464 309.312 148.992 512 32l211.072 121.92z m-424.704 715.52L96 752.448V533.12l202.56 116.224-0.256 219.968z m84.032 48.448l-0.128-220.544 131.648 75.52 130.624-75.456-1.024 219.392L512 992.576l-129.536-74.752z m53.696-599.552L298.944 396.736l-0.192 154.368L96 432.832V272.128l129.984-75.072 209.92 121.152h0.192zM928 533.696v218.816l-197.632 114.048-0.64-218.432L928 533.76zM520.832 367.232L645.76 439.36 644.992 600.96 513.92 676.736 382.208 599.808 382.08 444.864 520.96 367.232z" fill="#18D5C2" p-id="4815"></path></svg>